# xmcd
#
# Track frame offsets: 
#        150
#        23388
#        41950
#        60013
#        74438
#        91138
#        104750
#        121150
#        137400
#        155363
#        165938
#        175775
#        189113
#        200613
#        213400
#        226475
#        240263
#        256650
#
# Disc length: 3606 seconds
#
# Revision: 0
# Processed by: cddbd v1.5.2PL0 Copyright (c) Steve Scherf et al.
# Submitted via: ExactAudioCopy v1.0b3
#
DISCID=da0e1412
DTITLE=Song bird - Romantic Lovers 4
DYEAR=1900
DGENRE=Instrumental
TTITLE0=song bird
TTITLE1=even the nights are better
TTITLE2=somewhere out there
TTITLE3=you don't bring me follows
TTITLE4=sweet caroline
TTITLE5=moonlight shadow
TTITLE6=feelings
TTITLE7=midnight blue
TTITLE8=i can dream about you
TTITLE9=edelweiss
TTITLE10=blue hawaii
TTITLE11=tonight
TTITLE12=spanish eyes
TTITLE13=hawaiian wedding song
TTITLE14=auld land syne
TTITLE15=sealed with a kiss
TTITLE16=a whister shade of pale
TTITLE17=torn between two lovers
EXTD=
EXTT0=
EXTT1=
EXTT2=
EXTT3=
EXTT4=
EXTT5=
EXTT6=
EXTT7=
EXTT8=
EXTT9=
EXTT10=
EXTT11=
EXTT12=
EXTT13=
EXTT14=
EXTT15=
EXTT16=
EXTT17=
PLAYORDER=
